<svg width="128" height="50" viewBox="0 0 128 50" fill="none" xmlns="http://www.w3.org/2000/svg">
<path fill-rule="evenodd" clip-rule="evenodd" d="M13.6835 12.0983C15.0564 15.3393 16.5536 19.3743 18.7448 19.3743C22.4236 19.3743 30.2433 -0.303827 33.19 0.43529C34.6411 0.79929 35.4542 4.49235 35.8982 6.49068C35.8982 6.49068 24.4858 28.6552 17.6641 28.6552C10.8425 28.6552 6.67126 12.1932 6.67126 12.1932C8.46489 8.8062 12.3107 8.85736 13.6835 12.0983Z" fill="url(#paint0_radial_2001_338)"/>
<path fill-rule="evenodd" clip-rule="evenodd" d="M8.81573 28.2265C8.70513 21.5231 8.58768 14.4053 8.91947 12.9122C9.36354 10.9139 10.0729 9.93893 10.9635 9.71555C4.12528 8.94207 5.72205e-05 11.7974 5.72205e-05 18.3011V35.4246C5.72205e-05 36.2456 0.665627 36.8989 1.47465 36.7591C3.98399 36.3256 8.81573 34.656 8.81573 28.2265Z" fill="url(#paint1_linear_2001_338)"/>
<path fill-rule="evenodd" clip-rule="evenodd" d="M43.8323 35.4207C43.8323 36.2417 43.1536 36.9254 42.3451 36.7824C30.0504 34.6075 38.8354 4.6862 32.8688 0.424078C36.7146 -0.673148 43.8323 2.5059 43.8323 9.00963V35.4207Z" fill="white"/>
<path d="M58.8366 37.6672C56.0915 37.6672 53.9271 36.9281 52.3434 35.45C50.7597 33.9719 49.9679 32.0362 49.9679 29.6431C49.9679 27.2499 50.7949 25.3495 52.449 23.9418C54.1383 22.4988 56.5314 21.6542 59.6285 21.4078L66.9155 20.8249C67.2721 20.7964 67.547 20.4986 67.547 20.1409C67.547 18.8739 67.3006 17.8533 66.8079 17.0791C66.3504 16.3048 65.6993 15.7417 64.8547 15.3898C64.01 15.0379 63.0246 14.8619 61.8984 14.8619C59.9276 14.8619 58.4143 15.2666 57.3585 16.0761C56.4843 16.7172 55.972 17.5875 55.8216 18.6871C55.768 19.0792 55.454 19.4018 55.0582 19.4018H51.4236C51.0278 19.4018 50.704 19.0805 50.7311 18.6857C50.8388 17.1191 51.3058 15.739 52.1323 14.5451C53.0825 13.1726 54.4199 12.1168 56.1443 11.3777C57.904 10.6035 59.9276 10.2164 62.2152 10.2164C64.4675 10.2164 66.4208 10.6211 68.0749 11.4305C69.7289 12.24 71.0135 13.4542 71.9285 15.073C72.8436 16.6567 73.3011 18.6452 73.3011 21.0383V36.2643C73.3011 36.66 72.9802 36.9809 72.5845 36.9809H68.8078C68.4487 36.9809 68.145 36.715 68.0975 36.359L67.9924 35.5703C67.8965 34.8511 66.6952 34.6012 66.1657 35.0973C65.6513 35.5792 65.0383 36.0135 64.3268 36.4002C62.7431 37.2448 60.913 37.6672 58.8366 37.6672ZM60.6843 33.1272C62.7959 33.1272 64.4675 32.5113 65.6993 31.2796C66.9663 30.0478 67.5997 28.3761 67.5997 26.2645V25.6163C67.5997 25.1977 67.2425 24.8682 66.8252 24.902L61.7401 25.3143C59.6637 25.4903 58.1855 25.9302 57.3057 26.6341C56.4259 27.3379 55.986 28.2529 55.986 29.3791C55.986 30.6461 56.3907 31.5963 57.2001 32.2298C58.0448 32.8281 59.2061 33.1272 60.6843 33.1272Z" fill="white"/>
<path d="M81.89 11.0082C82.193 11.0082 82.4633 11.1988 82.565 11.4843L90.9935 35.135C91.0646 35.3346 91.0437 35.5556 90.9364 35.7384L88.4801 39.9217C88.1762 40.4393 87.4088 40.3763 87.1933 39.8161L76.4879 11.9821C76.3074 11.5127 76.6539 11.0082 77.1568 11.0082H81.89ZM77.3138 48.9996C77.0067 48.9232 76.7996 48.6419 76.7996 48.3255V44.7186C76.7996 44.3228 77.1205 44.002 77.5162 44.002H80.4949C81.3044 44.002 82.0258 43.8964 82.6593 43.6852C83.328 43.5092 83.9263 43.1573 84.4542 42.6294C84.9821 42.1367 85.4396 41.3625 85.8267 40.3067L96.4757 11.4765C96.5796 11.1951 96.8479 11.0082 97.1479 11.0082H101.666C102.171 11.0082 102.518 11.518 102.332 11.9883L90.1555 42.7878C89.2405 45.1105 88.0791 46.7998 86.6714 47.8556C85.2636 48.9114 83.5216 49.4393 81.4452 49.4393C80.5653 49.4393 79.7383 49.3865 78.964 49.2809C78.4038 49.2276 77.8538 49.1338 77.3138 48.9996Z" fill="white"/>
<path d="M112.915 37.6672C110.17 37.6672 108.006 36.9281 106.422 35.45C104.839 33.9719 104.047 32.0362 104.047 29.6431C104.047 27.2499 104.874 25.3495 106.528 23.9418C108.217 22.4988 110.61 21.6542 113.707 21.4078L120.994 20.8249C121.351 20.7964 121.626 20.4986 121.626 20.1409C121.626 18.8739 121.379 17.8533 120.887 17.0791C120.429 16.3048 119.778 15.7417 118.933 15.3898C118.089 15.0379 117.103 14.8619 115.977 14.8619C114.006 14.8619 112.493 15.2666 111.437 16.0761C110.563 16.7172 110.051 17.5875 109.9 18.6871C109.847 19.0792 109.533 19.4018 109.137 19.4018H105.502C105.107 19.4018 104.783 19.0805 104.81 18.6857C104.918 17.1191 105.385 15.739 106.211 14.5451C107.161 13.1726 108.499 12.1168 110.223 11.3777C111.983 10.6035 114.006 10.2164 116.294 10.2164C118.546 10.2164 120.5 10.6211 122.154 11.4305C123.808 12.24 125.092 13.4542 126.007 15.073C126.922 16.6567 127.38 18.6452 127.38 21.0383V36.2643C127.38 36.66 127.059 36.9809 126.663 36.9809H122.887C122.527 36.9809 122.224 36.715 122.176 36.359L122.071 35.5703C121.975 34.8511 120.774 34.6012 120.244 35.0973C119.73 35.5792 119.117 36.0135 118.406 36.4002C116.822 37.2448 114.992 37.6672 112.915 37.6672ZM114.763 33.1272C116.875 33.1272 118.546 32.5113 119.778 31.2796C121.045 30.0478 121.679 28.3761 121.679 26.2645V25.6163C121.679 25.1977 121.321 24.8682 120.904 24.902L115.819 25.3143C113.742 25.4903 112.264 25.9302 111.385 26.6341C110.505 27.3379 110.065 28.2529 110.065 29.3791C110.065 30.6461 110.469 31.5963 111.279 32.2298C112.124 32.8281 113.285 33.1272 114.763 33.1272Z" fill="white"/>
<defs>
<radialGradient id="paint0_radial_2001_338" cx="0" cy="0" r="1" gradientUnits="userSpaceOnUse" gradientTransform="translate(26.6646 30.6465) rotate(-100.994) scale(170.772 151.032)">
<stop offset="0.085299" stop-color="white"/>
<stop offset="0.200109" stop-color="white" stop-opacity="0"/>
</radialGradient>
<linearGradient id="paint1_linear_2001_338" x1="-2.38078" y1="55.3039" x2="-24.0543" y2="-11.4353" gradientUnits="userSpaceOnUse">
<stop stop-color="white"/>
<stop offset="0.840449" stop-color="white"/>
</linearGradient>
</defs>
</svg>
